<?xml version="1.0" encoding="UTF-8" standalone="no"?>
<svg width="117px" height="47px" viewBox="0 0 117 47" version="1.1" xmlns="http://www.w3.org/2000/svg" xmlns:xlink="http://www.w3.org/1999/xlink">
    <!-- Generator: sketchtool 41.2 (35397) - http://www.bohemiancoding.com/sketch -->
    <title>76BC3814-DFAA-4B0C-AE5C-416DC6F0809F</title>
    <desc>Created with sketchtool.</desc>
    <defs></defs>
    <g id="Components" stroke="none" stroke-width="1" fill="none" fill-rule="evenodd">
        <g id="Media-Mobile" transform="translate(-130.000000, -258.000000)" fill="#111111">
            <g id="Group-8" transform="translate(79.000000, 94.000000)">
                <g id="Group-9" transform="translate(0.000000, 164.000000)">
                    <path d="M54.5502483,45.8382022 L51,45.8382022 L51,46.5247191 L70.6588377,46.5247191 L70.6588377,34.1674157 L70.0759611,34.1674157 C70.0759611,34.1674157 70.0759611,41.2966292 67.6914659,43.6202247 C65.6778923,45.6269663 63.558341,45.7853933 60.1140703,45.7853933 L60.1140703,23.0247191 C60.1140703,23.0247191 62.4985654,22.8662921 63.6643186,24.0280899 C65.4659371,25.8235955 65.6778923,28.147191 65.6778923,31.3685393 L66.3137576,31.3685393 L66.3137576,13.941573 L65.6778923,13.941573 C65.6778923,17.1629213 65.5189259,19.4865169 63.6643186,21.2820225 C62.4985654,22.4438202 60.1140703,22.2853933 60.1140703,22.2853933 L60.1140703,0.686516854 C63.558341,0.686516854 65.2009932,0.897752809 67.2145669,2.85168539 C69.5460733,5.1752809 69.599062,12.3044944 69.599062,12.3044944 L70.1819386,12.3044944 L70.1819386,0 L51,0 L51,0.686516854 L54.5502483,0.686516854 L54.5502483,45.8382022 Z M92.9671143,0.686516854 L92.9671143,45.8382022 C96.4113851,45.8382022 98.5309363,45.6269663 100.54451,43.6730337 C102.876016,41.3494382 102.929005,34.2202247 102.929005,34.2202247 L103.511882,34.2202247 L103.511882,46.5775281 L83.8530441,46.5775281 L83.8530441,45.8910112 L87.4032924,45.8910112 L87.4032924,0.633707865 L83.8530441,0.633707865 L83.8530441,0 L96.19943,0 L96.19943,0.686516854 L92.9671143,0.686516854 Z M124.548428,0.686516854 L124.548428,45.8382022 C127.992698,45.8382022 130.11225,45.6269663 132.125823,43.6730337 C134.45733,41.3494382 134.510318,34.2202247 134.510318,34.2202247 L135.093195,34.2202247 L135.093195,46.5775281 L115.434357,46.5775281 L115.434357,45.8910112 L118.984606,45.8910112 L118.984606,0.633707865 L115.434357,0.633707865 L115.434357,0 L127.780743,0 L127.780743,0.686516854 L124.548428,0.686516854 Z M151.360751,45.8382022 L147.810502,45.8382022 L147.810502,46.5247191 L167.46934,46.5247191 L167.46934,34.1674157 L166.886463,34.1674157 C166.886463,34.1674157 166.886463,41.2966292 164.501968,43.6202247 C162.488395,45.6269663 160.368843,45.7853933 156.924573,45.7853933 L156.924573,23.0247191 C156.924573,23.0247191 159.309068,22.8662921 160.474821,24.0280899 C162.27644,25.8235955 162.488395,28.147191 162.488395,31.3685393 L163.12426,31.3685393 L163.12426,13.941573 L162.488395,13.941573 C162.488395,17.1629213 162.329428,19.4865169 160.474821,21.2820225 C159.309068,22.4438202 156.924573,22.2853933 156.924573,22.2853933 L156.924573,0.686516854 C160.368843,0.686516854 162.011496,0.897752809 164.025069,2.85168539 C166.356576,5.1752809 166.409564,12.3044944 166.409564,12.3044944 L166.992441,12.3044944 L166.992441,0 L147.810502,0 L147.810502,0.686516854 L151.360751,0.686516854 L151.360751,45.8382022 Z" id="logo-elle"></path>
                </g>
            </g>
        </g>
    </g>
</svg>