<?xml version="1.0" encoding="UTF-8" standalone="no"?>
<svg width="88px" height="62px" viewBox="0 0 88 62" version="1.1" xmlns="http://www.w3.org/2000/svg" xmlns:xlink="http://www.w3.org/1999/xlink">
    <!-- Generator: sketchtool 41.2 (35397) - http://www.bohemiancoding.com/sketch -->
    <title>E67BBC7B-8BAC-4DA3-9573-6DE08767BC1B</title>
    <desc>Created with sketchtool.</desc>
    <defs></defs>
    <g id="Components" stroke="none" stroke-width="1" fill="none" fill-rule="evenodd">
        <g id="Media-Mobile" transform="translate(-136.000000, -453.000000)" fill="#0046B9">
            <g id="Group-8" transform="translate(79.000000, 94.000000)">
                <g id="Group-11" transform="translate(0.000000, 359.000000)">
                    <path d="M72.1303134,35.6991476 L72.1303134,40.3205471 L72.0014261,40.3205471 L57.1288777,40.3205471 L57,40.3205471 L57,21.4662397 L57.1288777,21.4662397 L72.0014261,21.4662397 L72.1303134,21.4662397 L72.1303134,26.0796829 L72.0014261,26.0796829 L62.4657167,26.0796829 L62.4657167,28.5854419 L72.1303134,28.5854419 L72.1303134,33.2014906 L62.4657167,33.2014906 L62.4657167,35.6991476 L72.1303134,35.6991476 Z M136.074396,21.4662397 L130.750586,21.4662397 L130.750586,26.1661822 L136.074396,26.1661822 L136.074396,21.4662397 Z M136.074396,35.6991476 L130.750586,35.6991476 L130.750586,40.3205471 L136.074396,40.3205471 L136.074396,35.6991476 Z M121.659946,35.6991476 L112.016191,35.6991476 L112.016191,33.2014906 L121.659946,33.2014906 L121.659946,28.5854419 L112.016191,28.5854419 L112.016191,26.0796829 L121.659946,26.0796829 L121.659946,21.4662397 L106.691364,21.4662397 L106.691364,40.3205471 L121.659946,40.3205471 L121.659946,35.6991476 Z M82.6374845,0 L144.63821,0 L144.63821,62 L82.6374845,62 L82.6374845,40.3205471 L87.893033,40.3205471 L87.893033,33.2014906 L97.454488,33.2014906 L97.454488,28.5854419 L87.893033,28.5854419 L87.893033,26.0796829 L97.5363611,26.0796829 L97.5363611,21.4662397 L82.6374845,21.4662397 L82.6374845,0 Z" id="logo-efe"></path>
                </g>
            </g>
        </g>
    </g>
</svg>