<?xml version="1.0" encoding="UTF-8" standalone="no"?>
<svg width="175px" height="61px" viewBox="0 0 175 61" version="1.1" xmlns="http://www.w3.org/2000/svg" xmlns:xlink="http://www.w3.org/1999/xlink">
    <!-- Generator: sketchtool 41.2 (35397) - http://www.bohemiancoding.com/sketch -->
    <title>92D0412D-85C5-4651-81DE-CE1380781A1B</title>
    <desc>Created with sketchtool.</desc>
    <defs>
        <rect id="path-1" x="0" y="0" width="176.410256" height="64"></rect>
    </defs>
    <g id="Components" stroke="none" stroke-width="1" fill="none" fill-rule="evenodd">
        <g id="Media-Mobile" transform="translate(-101.000000, -96.000000)">
            <g id="Group-8" transform="translate(79.000000, 94.000000)">
                <g id="Group-10">
                    <g id="logo-lv" transform="translate(21.000000, 0.000000)">
                        <mask id="mask-2" fill="white">
                            <use xlink:href="#path-1"></use>
                        </mask>
                        <g id="Mask"></g>
                        <rect id="Rectangle-2" fill="#001B4F" mask="url(#mask-2)" x="1" y="2" width="175" height="61"></rect>
                        <g id="logo_lv_2" mask="url(#mask-2)" fill="#FFFFFF">
                            <g transform="translate(15.000000, 25.000000)" id="Shape">
                                <path d="M119.983784,1.2 L114.024324,1.2 L114.024324,1.92 L115.613514,2.32 L115.613514,13.44 C115.375135,13.68 115.057297,14 114.501081,14 C113.468108,14 112.832432,13.12 112.594054,12.56 L111.084324,9.84 C110.448649,8.72 109.812973,8.16 108.382703,8 L108.382703,7.84 C110.369189,7.76 112.196757,6.32 112.196757,4.4 C112.196757,2.08 110.130811,1.2 107.667568,1.2 L102.184865,1.2 L102.184865,1.92 L103.932973,2.32 L103.932973,13.6 L103.932973,13.6 L101.867027,14 L96.7816216,0 C96.1459459,0.72 95.5102703,1.28 94.9540541,1.6 L95.112973,2.16 L90.5043243,13.6 L89.0740541,14 L89.0740541,14.72 L93.2854054,14.72 L93.2854054,14 L91.9345946,13.6 L93.5237838,9.44 L97.8145946,9.44 L99.3243243,13.6 L97.7351351,14 L97.7351351,14.72 L108.064865,14.72 L108.064865,14 L106.316757,13.6 L106.316757,8.32 C107.508649,8.4 108.064865,8.96 108.621081,10 L110.687027,13.68 C111.402162,14.88 112.435135,15.52 113.627027,15.52 C114.580541,15.52 115.375135,14.96 115.534054,14.72 L120.142703,14.72 C124.036216,14.72 127.294054,11.68 127.294054,7.92 C127.214595,4 124.195135,1.2 119.983784,1.2 L119.983784,1.2 Z M93.8416216,8.4 L95.6691892,3.6 L97.4172973,8.4 L93.8416216,8.4 L93.8416216,8.4 Z M107.190811,7.36 L106.237297,7.36 L106.237297,2.32 L107.34973,2.32 C108.78,2.32 109.733514,3.44 109.733514,4.72 C109.733514,6.08 108.78,7.36 107.190811,7.36 L107.190811,7.36 Z M119.904324,13.6 L117.997297,13.6 L117.997297,2.32 L119.983784,2.32 C123.003243,2.32 124.91027,4.48 124.91027,8 C124.830811,11.44 122.923784,13.6 119.904324,13.6 L119.904324,13.6 Z"></path>
                                <path d="M21.612973,13.6 L16.6864865,0 C16.0508108,0.72 15.4151351,1.28 14.8589189,1.6 L15.0178378,2.16 L10.4091892,13.6 L9.45567568,14 L9.13783784,14.72 L13.2697297,14.72 L13.2697297,14 L11.8394595,13.6 L13.4286486,9.44 L17.7194595,9.44 L19.2291892,13.6 L17.64,14 L17.64,14.72 L23.2021622,14.72 L23.2021622,14 L21.612973,13.6 L21.612973,13.6 Z M13.7464865,8.4 L15.5740541,3.6 L17.3221622,8.4 L13.7464865,8.4 L13.7464865,8.4 Z"></path>
                                <polygon points="9.77351351 11.28 9.29675676 11.04 6.35675676 13.68 3.89351351 13.68 3.89351351 2.32 5.40324324 1.92 5.40324324 1.2 0 1.2 0 1.92 1.50972973 2.32 1.50972973 13.6 0 14 0 14.72 8.4227027 14.72"></polygon>
                                <polygon points="33.2140541 1.2 33.2140541 1.92 34.8032432 2.32 31.307027 11.36 27.5724324 2.32 29.3205405 1.92 29.3205405 1.2 23.3610811 1.2 23.3610811 1.92 25.0297297 2.32 30.3535135 15.2 30.9097297 15.2 36.2335135 2.32 36.312973 2.32 37.9816216 1.92 37.9816216 1.2"></polygon>
                                <path d="M86.292973,1.2 L86.292973,1.92 L87.8821622,2.32 C87.8821622,2.32 88.0410811,9.04 87.9616216,10.72 C87.8821622,12.72 86.3724324,14 84.3064865,14 C82.2405405,14 80.7308108,12.72 80.6513514,10.48 L80.6513514,2.32 L82.2405405,2 L82.2405405,1.2 L76.8372973,1.2 L76.8372973,1.92 L78.347027,2.32 L78.347027,10.64 C78.4264865,13.52 80.7308108,15.36 83.6708108,15.36 C86.6108108,15.36 88.9151351,13.6 88.9945946,10.64 L89.0740541,2.32 L90.6632432,1.92 L90.6632432,1.2 L86.292973,1.2 L86.292973,1.2 Z"></path>
                                <path d="M144.854595,13.6 L139.928108,0 C139.292432,0.72 138.656757,1.28 138.100541,1.6 L138.259459,2.16 L133.571351,13.68 L132.776757,14 L131.743784,13.68 L131.743784,2.32 L133.412432,1.92 L133.412432,1.2 L127.770811,1.2 L127.770811,1.92 L129.36,2.32 L129.36,13.6 L127.770811,14 L127.770811,14.72 L136.431892,14.72 L136.431892,14 L135.081081,13.6 L136.67027,9.44 L140.961081,9.44 L142.470811,13.6 L140.881622,14 L140.881622,14.72 L146.443784,14.72 L146.443784,14 L144.854595,13.6 L144.854595,13.6 Z M136.988108,8.4 L138.815676,3.6 L140.563784,8.4 L136.988108,8.4 L136.988108,8.4 Z"></path>
                                <path d="M57.3697297,1.2 L57.3697297,1.92 L59.0383784,2.32 L59.1178378,11.2 L50.6951351,1.2 L47.1194595,1.2 L47.1194595,1.92 L48.7881081,2.32 L48.8675676,2.4 L48.7086486,13.6 L48.7086486,13.6 L47.04,14 L41.9545946,0 C41.3189189,0.72 40.6832432,1.28 40.127027,1.6 L40.2859459,2.16 L35.6772973,13.6 L34.247027,14 L34.247027,14.72 L38.4583784,14.72 L38.4583784,14 L37.1075676,13.6 L38.6967568,9.44 L42.9875676,9.44 L44.4972973,13.6 L42.9081081,14 L42.9081081,14.72 L51.8075676,14.72 L51.8075676,14 L49.98,13.6 L49.9005405,3.76 L59.5945946,15.2 L60.2302703,15.2 L60.3891892,2.32 L61.9783784,1.92 L61.9783784,1.2 L57.3697297,1.2 L57.3697297,1.2 Z M39.0145946,8.4 L40.8421622,3.6 L42.5902703,8.4 L39.0145946,8.4 L39.0145946,8.4 Z"></path>
                                <path d="M71.592973,7.84 L71.592973,8.56 L73.1027027,8.96 L73.1027027,13.36 C72.3875676,14 71.1956757,14.4 70.0832432,14.4 C66.9843243,14.4 65.0772973,11.84 65.0772973,8.24 C65.0772973,4.72 66.9843243,1.76 70.1627027,1.76 C72.2286486,1.76 73.9767568,3.2 74.6918919,5.44 L75.0891892,5.2 L75.0891892,0.8 L74.6918919,0.56 L73.8972973,1.6 C73.0232432,1.12 71.592973,0.64 70.1627027,0.64 C66.0308108,0.64 62.6140541,4.08 62.6140541,8.08 C62.6140541,12.32 65.5540541,15.28 69.6064865,15.28 C71.2751351,15.28 72.7848649,14.8 73.9767568,13.84 L75.1686486,14.64 L75.5659459,14.64 L75.5659459,8.8 L76.8372973,8.32 L76.8372973,7.84 L71.592973,7.84 L71.592973,7.84 Z"></path>
                            </g>
                        </g>
                    </g>
                </g>
            </g>
        </g>
    </g>
</svg>